<mxfile host="Electron" modified="2023-07-15T10:28:25.220Z" agent="Mozilla/5.0 (Windows NT 10.0; Win64; x64) AppleWebKit/537.36 (KHTML, like Gecko) draw.io/21.6.1 Chrome/112.0.5615.204 Electron/24.6.1 Safari/537.36" etag="bEwnAIteFf3mAkU7AYxF" version="21.6.1" type="device">
  <diagram name="Página-1" id="_QbAg0WZF5OEtpausT1T">
    <mxGraphModel dx="1687" dy="1146" grid="1" gridSize="10" guides="1" tooltips="1" connect="1" arrows="1" fold="1" page="1" pageScale="1" pageWidth="827" pageHeight="1169" math="0" shadow="0">
      <root>
        <mxCell id="0" />
        <mxCell id="1" parent="0" />
        <mxCell id="3N6TJt60Qi-MUgSQkJj6-18" value="" style="shape=parallelogram;perimeter=parallelogramPerimeter;whiteSpace=wrap;html=1;fixedSize=1;size=360;fillColor=#dae8fc;strokeColor=#6c8ebf;rounded=0;" vertex="1" parent="1">
          <mxGeometry x="670" y="320" width="600" height="360" as="geometry" />
        </mxCell>
        <mxCell id="3N6TJt60Qi-MUgSQkJj6-6" value="" style="rounded=0;whiteSpace=wrap;html=1;fillColor=#dae8fc;strokeColor=#6c8ebf;" vertex="1" parent="1">
          <mxGeometry x="400" y="280" width="240" height="480" as="geometry" />
        </mxCell>
        <mxCell id="3N6TJt60Qi-MUgSQkJj6-1" value="y" style="endArrow=classic;html=1;rounded=0;labelPosition=left;verticalLabelPosition=middle;align=right;verticalAlign=middle;fontSize=18;" edge="1" parent="1">
          <mxGeometry width="50" height="50" relative="1" as="geometry">
            <mxPoint x="400" y="520" as="sourcePoint" />
            <mxPoint x="400" y="280" as="targetPoint" />
          </mxGeometry>
        </mxCell>
        <mxCell id="3N6TJt60Qi-MUgSQkJj6-2" value="z" style="endArrow=classic;html=1;rounded=0;labelPosition=right;verticalLabelPosition=middle;align=left;verticalAlign=middle;spacingLeft=13;fontSize=18;" edge="1" parent="1">
          <mxGeometry width="50" height="50" relative="1" as="geometry">
            <mxPoint x="400" y="520" as="sourcePoint" />
            <mxPoint x="240" y="680" as="targetPoint" />
          </mxGeometry>
        </mxCell>
        <mxCell id="3N6TJt60Qi-MUgSQkJj6-4" value="x" style="endArrow=classic;html=1;rounded=0;labelPosition=center;verticalLabelPosition=bottom;align=center;verticalAlign=top;fontSize=18;labelBackgroundColor=none;" edge="1" parent="1">
          <mxGeometry width="50" height="50" relative="1" as="geometry">
            <mxPoint x="400" y="520" as="sourcePoint" />
            <mxPoint x="640" y="520" as="targetPoint" />
          </mxGeometry>
        </mxCell>
        <mxCell id="3N6TJt60Qi-MUgSQkJj6-5" value="contorno" style="rounded=0;whiteSpace=wrap;html=1;" vertex="1" parent="1">
          <mxGeometry x="440" y="560" width="70" height="40" as="geometry" />
        </mxCell>
        <mxCell id="3N6TJt60Qi-MUgSQkJj6-8" value="-z" style="endArrow=classic;html=1;rounded=0;labelPosition=right;verticalLabelPosition=middle;align=left;verticalAlign=middle;spacingLeft=13;fontSize=18;entryX=0.833;entryY=0.083;entryDx=0;entryDy=0;entryPerimeter=0;dashed=1;labelBackgroundColor=none;dashPattern=12 12;" edge="1" parent="1" target="3N6TJt60Qi-MUgSQkJj6-6">
          <mxGeometry width="50" height="50" relative="1" as="geometry">
            <mxPoint x="400" y="520" as="sourcePoint" />
            <mxPoint x="250" y="690" as="targetPoint" />
          </mxGeometry>
        </mxCell>
        <mxCell id="3N6TJt60Qi-MUgSQkJj6-10" value="" style="html=1;verticalLabelPosition=bottom;align=center;labelBackgroundColor=#ffffff;verticalAlign=top;strokeWidth=2;strokeColor=#000103;shadow=0;dashed=0;shape=mxgraph.ios7.icons.reload;rotation=-89;" vertex="1" parent="1">
          <mxGeometry x="556.75" y="503.54" width="60" height="33.5" as="geometry" />
        </mxCell>
        <mxCell id="3N6TJt60Qi-MUgSQkJj6-12" value="y" style="endArrow=classic;html=1;rounded=0;labelPosition=left;verticalLabelPosition=middle;align=right;verticalAlign=middle;fontSize=18;" edge="1" parent="1">
          <mxGeometry width="50" height="50" relative="1" as="geometry">
            <mxPoint x="830" y="520" as="sourcePoint" />
            <mxPoint x="830" y="280" as="targetPoint" />
          </mxGeometry>
        </mxCell>
        <mxCell id="3N6TJt60Qi-MUgSQkJj6-13" value="z" style="endArrow=classic;html=1;rounded=0;labelPosition=right;verticalLabelPosition=middle;align=left;verticalAlign=middle;spacingLeft=13;fontSize=18;labelBackgroundColor=none;" edge="1" parent="1">
          <mxGeometry width="50" height="50" relative="1" as="geometry">
            <mxPoint x="830" y="520" as="sourcePoint" />
            <mxPoint x="670" y="680" as="targetPoint" />
          </mxGeometry>
        </mxCell>
        <mxCell id="3N6TJt60Qi-MUgSQkJj6-14" value="x" style="endArrow=classic;html=1;rounded=0;labelPosition=center;verticalLabelPosition=bottom;align=center;verticalAlign=top;fontSize=18;labelBackgroundColor=none;" edge="1" parent="1">
          <mxGeometry width="50" height="50" relative="1" as="geometry">
            <mxPoint x="830" y="520" as="sourcePoint" />
            <mxPoint x="1070" y="520" as="targetPoint" />
          </mxGeometry>
        </mxCell>
        <mxCell id="3N6TJt60Qi-MUgSQkJj6-16" value="-z" style="endArrow=classic;html=1;rounded=0;labelPosition=right;verticalLabelPosition=middle;align=left;verticalAlign=middle;spacingLeft=13;fontSize=18;entryX=0.833;entryY=0.083;entryDx=0;entryDy=0;entryPerimeter=0;dashed=1;labelBackgroundColor=none;dashPattern=12 12;" edge="1" parent="1">
          <mxGeometry width="50" height="50" relative="1" as="geometry">
            <mxPoint x="830" y="520" as="sourcePoint" />
            <mxPoint x="1029.92" y="319.8399999999999" as="targetPoint" />
          </mxGeometry>
        </mxCell>
        <mxCell id="3N6TJt60Qi-MUgSQkJj6-19" value="contorno" style="shape=parallelogram;perimeter=parallelogramPerimeter;whiteSpace=wrap;html=1;fixedSize=1;size=30;" vertex="1" parent="1">
          <mxGeometry x="820" y="555" width="120" height="30" as="geometry" />
        </mxCell>
        <mxCell id="3N6TJt60Qi-MUgSQkJj6-22" value="" style="endArrow=none;html=1;rounded=0;entryX=0;entryY=1;entryDx=0;entryDy=0;" edge="1" parent="1" target="3N6TJt60Qi-MUgSQkJj6-19">
          <mxGeometry width="50" height="50" relative="1" as="geometry">
            <mxPoint x="820" y="480" as="sourcePoint" />
            <mxPoint x="880" y="545" as="targetPoint" />
          </mxGeometry>
        </mxCell>
        <mxCell id="3N6TJt60Qi-MUgSQkJj6-23" value="" style="endArrow=none;html=1;rounded=0;entryX=0;entryY=1;entryDx=0;entryDy=0;" edge="1" parent="1">
          <mxGeometry width="50" height="50" relative="1" as="geometry">
            <mxPoint x="850" y="450" as="sourcePoint" />
            <mxPoint x="850" y="555" as="targetPoint" />
          </mxGeometry>
        </mxCell>
        <mxCell id="3N6TJt60Qi-MUgSQkJj6-24" value="" style="endArrow=none;html=1;rounded=0;entryX=0;entryY=1;entryDx=0;entryDy=0;" edge="1" parent="1">
          <mxGeometry width="50" height="50" relative="1" as="geometry">
            <mxPoint x="910" y="480" as="sourcePoint" />
            <mxPoint x="910" y="585" as="targetPoint" />
          </mxGeometry>
        </mxCell>
        <mxCell id="3N6TJt60Qi-MUgSQkJj6-25" value="" style="endArrow=none;html=1;rounded=0;entryX=0;entryY=1;entryDx=0;entryDy=0;" edge="1" parent="1">
          <mxGeometry width="50" height="50" relative="1" as="geometry">
            <mxPoint x="940" y="450" as="sourcePoint" />
            <mxPoint x="940" y="555" as="targetPoint" />
          </mxGeometry>
        </mxCell>
        <mxCell id="3N6TJt60Qi-MUgSQkJj6-26" value="" style="shape=parallelogram;perimeter=parallelogramPerimeter;whiteSpace=wrap;html=1;fixedSize=1;size=30;" vertex="1" parent="1">
          <mxGeometry x="820" y="450" width="120" height="30" as="geometry" />
        </mxCell>
        <mxCell id="3N6TJt60Qi-MUgSQkJj6-27" value="" style="endArrow=none;html=1;rounded=0;" edge="1" parent="1">
          <mxGeometry width="50" height="50" relative="1" as="geometry">
            <mxPoint x="380" y="620" as="sourcePoint" />
            <mxPoint x="440" y="560" as="targetPoint" />
          </mxGeometry>
        </mxCell>
        <mxCell id="3N6TJt60Qi-MUgSQkJj6-28" value="" style="endArrow=none;html=1;rounded=0;" edge="1" parent="1">
          <mxGeometry width="50" height="50" relative="1" as="geometry">
            <mxPoint x="450" y="620" as="sourcePoint" />
            <mxPoint x="510" y="560" as="targetPoint" />
          </mxGeometry>
        </mxCell>
        <mxCell id="3N6TJt60Qi-MUgSQkJj6-29" value="" style="endArrow=none;html=1;rounded=0;" edge="1" parent="1">
          <mxGeometry width="50" height="50" relative="1" as="geometry">
            <mxPoint x="380" y="660" as="sourcePoint" />
            <mxPoint x="440" y="600" as="targetPoint" />
          </mxGeometry>
        </mxCell>
        <mxCell id="3N6TJt60Qi-MUgSQkJj6-30" value="" style="endArrow=none;html=1;rounded=0;" edge="1" parent="1">
          <mxGeometry width="50" height="50" relative="1" as="geometry">
            <mxPoint x="450" y="660" as="sourcePoint" />
            <mxPoint x="510" y="600" as="targetPoint" />
          </mxGeometry>
        </mxCell>
        <mxCell id="3N6TJt60Qi-MUgSQkJj6-31" value="" style="rounded=0;whiteSpace=wrap;html=1;" vertex="1" parent="1">
          <mxGeometry x="379" y="620" width="70" height="40" as="geometry" />
        </mxCell>
        <mxCell id="3N6TJt60Qi-MUgSQkJj6-32" value="&lt;font style=&quot;font-size: 19px;&quot;&gt;&lt;b&gt;Shape + extrusión&lt;/b&gt;&lt;/font&gt;" style="text;html=1;strokeColor=none;fillColor=none;align=center;verticalAlign=middle;whiteSpace=wrap;rounded=0;" vertex="1" parent="1">
          <mxGeometry x="396.75" y="250" width="220" height="30" as="geometry" />
        </mxCell>
        <mxCell id="3N6TJt60Qi-MUgSQkJj6-33" value="&lt;font style=&quot;font-size: 19px;&quot;&gt;&lt;b&gt;Transformación&lt;/b&gt;&lt;/font&gt;" style="text;html=1;strokeColor=none;fillColor=none;align=center;verticalAlign=middle;whiteSpace=wrap;rounded=0;" vertex="1" parent="1">
          <mxGeometry x="820" y="250" width="220" height="30" as="geometry" />
        </mxCell>
      </root>
    </mxGraphModel>
  </diagram>
</mxfile>
